<?xml version="1.0"?>
<svg xmlns="http://www.w3.org/2000/svg" xmlns:xlink="http://www.w3.org/1999/xlink" xmlns:svgjs="http://svgjs.com/svgjs" version="1.1" width="512" height="512" x="0" y="0" viewBox="0 0 512 512" style="enable-background:new 0 0 512 512" xml:space="preserve" class=""><g><g xmlns="http://www.w3.org/2000/svg"><g><path d="m181.968 155.891c-1.696 0-3.404-.556-4.83-1.701-3.328-2.671-3.861-7.534-1.191-10.862l50.417-62.714c1.467-1.827 3.683-2.891 6.026-2.891h141.075c4.267 0 7.726 3.459 7.726 7.726s-3.459 7.726-7.726 7.726h-137.368l-48.098 59.825c-1.526 1.902-3.768 2.891-6.031 2.891z" fill="#d9eeff" data-original="#d9eeff" style=""/></g><g><path clip-rule="evenodd" d="m471.73 333.529-29.202-89.331h-53.819l-27.859 84.016 27.859 94.618h53.819z" fill="#eff6ff" fill-rule="evenodd" data-original="#eff6ff" style=""/></g><g><path d="m442.528 296.575h-53.819c-4.267 0-7.726-3.459-7.726-7.726s3.459-7.726 7.726-7.726h53.819c4.267 0 7.726 3.459 7.726 7.726.001 4.267-3.459 7.726-7.726 7.726z" fill="#d9eeff" data-original="#d9eeff" style=""/></g><g><path d="m442.528 341.256h-53.819c-4.267 0-7.726-3.459-7.726-7.726s3.459-7.726 7.726-7.726h53.819c4.267 0 7.726 3.459 7.726 7.726.001 4.266-3.459 7.726-7.726 7.726z" fill="#d9eeff" data-original="#d9eeff" style=""/></g><g><path d="m442.528 385.907h-53.819c-4.267 0-7.726-3.459-7.726-7.726s3.459-7.726 7.726-7.726h53.819c4.267 0 7.726 3.459 7.726 7.726s-3.459 7.726-7.726 7.726z" fill="#d9eeff" data-original="#d9eeff" style=""/></g><g><path clip-rule="evenodd" d="m315.733 226.939v-40.037l-109.158-19.917-89.095 19.917v40.037l91.373 11.769z" fill="#eff6ff" fill-rule="evenodd" data-original="#eff6ff" style=""/></g><g><path clip-rule="evenodd" d="m485.718 111.763c14.338 0 26.107-11.652 26.282-25.961v-.35-.322c-.175-14.309-11.944-25.961-26.282-25.961h-85.971c-14.455 0-26.282 11.827-26.282 26.283 0 14.485 11.827 26.312 26.282 26.312h85.971z" fill="#375e7d" fill-rule="evenodd" data-original="#375e7d" style=""/></g><g><path clip-rule="evenodd" d="m282.91 220.806v6.133h32.823v-22.077-17.96h-198.253v17.96h151.734c14.221-.001 13.696 2.92 13.696 15.944z" fill="#d9eeff" fill-rule="evenodd" data-original="#d9eeff" style=""/></g><g><path clip-rule="evenodd" d="m465.861 97.804h-85.971c-1.168 0-2.307-.058-3.446-.234 4.41 8.41 13.199 14.193 23.303 14.193h85.971c14.338 0 26.107-11.652 26.282-25.961v-.35-.322c-.175-13.141-10.104-24.034-22.836-25.728 1.84 3.534 2.92 7.564 2.979 11.798v.321.321c-.176 14.31-11.944 25.962-26.282 25.962z" fill="#2b4d66" fill-rule="evenodd" data-original="#2b4d66" style=""/></g><g><path clip-rule="evenodd" d="m315.733 170.052c0-16.675-13.637-30.342-30.312-30.342h-96.571-150.829l-16.354 23.61 16.354 23.581h79.459 198.253z" fill="#375e7d" fill-rule="evenodd" data-original="#375e7d" style=""/></g><g><path clip-rule="evenodd" d="m252.656 139.71c16.645.058 30.253 13.667 30.253 30.342v16.85h32.823v-16.85c0-16.675-13.637-30.342-30.312-30.342h-32.736z" fill="#2b4d66" fill-rule="evenodd" data-original="#2b4d66" style=""/></g><g><path clip-rule="evenodd" d="m388.709 288.849v-44.651c0-9.491-7.768-17.259-17.258-17.259h-55.718-198.253-19.478c-19.332 0-35.159 15.828-35.159 35.189v81.68h91.403c9.812 0 17.842 8.031 17.842 17.843v78.439h199.362c9.491 0 17.258-7.768 17.258-17.259v-44.651-44.651-44.68z" fill="#375e7d" fill-rule="evenodd" data-original="#375e7d" style=""/></g><g><path clip-rule="evenodd" d="m318.653 401.806v-52.653c0-2.949-2.395-5.344-5.344-5.344h-51.454v63.312h51.454c2.949-.001 5.344-2.395 5.344-5.315z" fill="#9fd4fe" fill-rule="evenodd" data-original="#9fd4fe" style="" class=""/></g><g><path clip-rule="evenodd" d="m261.855 407.12v-63.312h-51.454c-2.949 0-5.344 2.395-5.344 5.344v52.653c0 2.92 2.395 5.315 5.344 5.315z" fill="#9fd4fe" fill-rule="evenodd" data-original="#9fd4fe" style="" class=""/></g><g><path clip-rule="evenodd" d="m172.088 440.09v-78.439c0-9.812-8.031-17.843-17.842-17.843h-91.403v61.092c0 19.362 15.828 35.189 35.159 35.189h74.086z" fill="#eff6ff" fill-rule="evenodd" data-original="#eff6ff" style=""/></g><g><path clip-rule="evenodd" d="m114.589 297.464c10.367 0 18.777-8.381 18.777-18.777 0-10.367-8.41-18.777-18.777-18.777-10.396 0-18.777 8.41-18.777 18.777 0 10.395 8.381 18.777 18.777 18.777z" fill="#eb5468" fill-rule="evenodd" data-original="#eb5468" style="" class=""/></g><g><path clip-rule="evenodd" d="m205.466 278.686c0-10.367-8.41-18.777-18.777-18.777s-18.777 8.41-18.777 18.777c0 10.396 8.41 18.777 18.777 18.777 10.367.001 18.777-8.381 18.777-18.777z" fill="#7fdbae" fill-rule="evenodd" data-original="#7fdbae" style=""/></g><g><path clip-rule="evenodd" d="m360.85 244.198v178.634c0 9.491-7.768 17.259-17.258 17.259h27.859c9.491 0 17.258-7.768 17.258-17.259 0-59.545 0-119.089 0-178.634 0-9.491-7.768-17.259-17.258-17.259h-27.859c9.49 0 17.258 7.768 17.258 17.259z" fill="#2b4d66" fill-rule="evenodd" data-original="#2b4d66" style=""/></g><g><path d="m135.439 399.691h-35.948c-4.267 0-7.726-3.459-7.726-7.726s3.459-7.726 7.726-7.726h35.948c4.267 0 7.726 3.459 7.726 7.726 0 4.266-3.459 7.726-7.726 7.726z" fill="#375e7d" data-original="#375e7d" style=""/></g><g><path d="m332.086 315.499h-50.929c-4.267 0-7.726-3.459-7.726-7.726s3.459-7.726 7.726-7.726h50.929c4.267 0 7.726 3.459 7.726 7.726s-3.459 7.726-7.726 7.726z" fill="#d9eeff" data-original="#d9eeff" style=""/></g><g><path d="m332.086 277.944h-50.929c-4.267 0-7.726-3.459-7.726-7.726s3.459-7.726 7.726-7.726h50.929c4.267 0 7.726 3.459 7.726 7.726 0 4.266-3.459 7.726-7.726 7.726z" fill="#d9eeff" data-original="#d9eeff" style=""/></g><g><path clip-rule="evenodd" d="m511.971 444.938c0-67.721 0-155.126 0-222.847 0-6.6-3.738-9.695-9.754-6.804l-59.689 28.911v178.634l59.689 28.911c6.016 2.891 9.754-.176 9.754-6.805z" fill="#375e7d" fill-rule="evenodd" data-original="#375e7d" style=""/></g><g><path clip-rule="evenodd" d="m487.937 404.259c0 6.6-3.738 9.695-9.724 6.804l-35.685-17.288v29.057l59.689 28.911c6.016 2.891 9.754-.175 9.754-6.804 0-67.721 0-155.126 0-222.847 0-6.6-3.738-9.695-9.754-6.804l-14.251 6.921c.001 59.66.001 127.294-.029 182.05z" fill="#2b4d66" fill-rule="evenodd" data-original="#2b4d66" style=""/></g><g><path clip-rule="evenodd" d="m38.021 186.902v-47.192-.642c0-10.455-8.556-19.011-19.011-19.011-10.367 0-18.865 8.381-19.011 18.69v.321 48.506.292c.146 10.338 8.644 18.719 19.011 18.719 10.454 0 19.011-8.556 19.011-19.011z" fill="#9fd4fe" fill-rule="evenodd" data-original="#9fd4fe" style="" class=""/></g><g><path clip-rule="evenodd" d="m19.011 182.317c-10.367 0-18.865-8.381-19.011-18.719v23.976.292c.146 10.338 8.644 18.719 19.011 18.719 10.454 0 19.011-8.556 19.011-19.011v-.672-23.596c-.001 10.454-8.557 19.011-19.011 19.011z" fill="#85beef" fill-rule="evenodd" data-original="#85beef" style=""/></g></g><script/></g></svg>
