<svg xmlns="http://www.w3.org/2000/svg" xmlns:xlink="http://www.w3.org/1999/xlink" width="168" height="178" viewBox="0 0 168 178">
    <defs>
        <linearGradient id="2nrqfhfbtc" x1="12.962%" x2="85.186%" y1="12.902%" y2="87.035%">
            <stop offset="0%" stop-color="#E2353F"/>
            <stop offset="100%" stop-color="#FFB55D"/>
        </linearGradient>
        <linearGradient id="3tczufx57d" x1="0%" x2="97.272%" y1="0%" y2="97.272%">
            <stop offset="0%" stop-color="#D52D0D"/>
            <stop offset="100%" stop-color="#EF9234"/>
        </linearGradient>
        <filter id="ekbkyc8sua" width="106%" height="111.9%" x="-3%" y="-3%" filterUnits="objectBoundingBox">
            <feOffset dy="10" in="SourceAlpha" result="shadowOffsetOuter1"/>
            <feColorMatrix in="shadowOffsetOuter1" values="0 0 0 0 0.895514456 0 0 0 0 0.625418476 0 0 0 0 0.44535449 0 0 0 0.5 0"/>
        </filter>
        <path id="a2a0m47l9b" d="M83.855 0C37.544 0 0 37.543 0 83.855c0 46.311 37.544 83.855 83.855 83.855 46.312 0 83.855-37.544 83.855-83.855C167.71 37.543 130.167 0 83.855 0z"/>
    </defs>
    <g fill="none" fill-rule="evenodd">
        <g>
            <g>
                <use fill="#000" filter="url(#ekbkyc8sua)" xlink:href="#a2a0m47l9b"/>
                <use fill="url(#2nrqfhfbtc)" xlink:href="#a2a0m47l9b"/>
            </g>
            <path fill="url(#3tczufx57d)" d="M83.853 148.966c44.64 0 81.024-31.002 83.603-70.074.101 1.65.253 3.287.253 4.963 0 46.312-37.545 83.855-83.856 83.855-46.31 0-83.85-37.543-83.85-83.855 0-1.676.151-3.312.247-4.963 2.584 39.072 38.97 70.074 83.603 70.074"/>
            <path fill="#E49F72" fill-opacity=".5" d="M83.853 9.753c-27.822 0-52.508 12.315-68.32 31.366 14.262-22.75 39.49-37.926 68.32-37.926 28.83 0 54.058 15.174 68.321 37.923-15.813-19.05-40.499-31.363-68.32-31.363" style="mix-blend-mode:screen"/>
            <text fill="#FFF" font-family="Lobster-Regular, Lobster" font-size="47">
                <tspan x="18.4" y="97">Manga</tspan>
            </text>
        </g>
    </g>
</svg>
