<?xml version="1.0" encoding="iso-8859-1"?>
<!-- Generator: Adobe Illustrator 17.1.0, SVG Export Plug-In . SVG Version: 6.00 Build 0)  -->
<!DOCTYPE svg PUBLIC "-//W3C//DTD SVG 1.1//EN" "http://www.w3.org/Graphics/SVG/1.1/DTD/svg11.dtd" [
	<!ENTITY ns_flows "http://ns.adobe.com/Flows/1.0/">
	<!ENTITY ns_extend "http://ns.adobe.com/Extensibility/1.0/">
	<!ENTITY ns_ai "http://ns.adobe.com/AdobeIllustrator/10.0/">
	<!ENTITY ns_graphs "http://ns.adobe.com/Graphs/1.0/">
]>
<svg version="1.1" id="Calque_1" xmlns:x="&ns_extend;" xmlns:i="&ns_ai;" xmlns:graph="&ns_graphs;"
	 xmlns="http://www.w3.org/2000/svg" xmlns:xlink="http://www.w3.org/1999/xlink" xmlns:a="http://ns.adobe.com/AdobeSVGViewerExtensions/3.0/"
	 x="0px" y="0px" viewBox="0 0 130 119.074" style="enable-background:new 0 0 130 119.074;" xml:space="preserve">
<g>
	<circle style="fill:#FFFFFF;" cx="65" cy="59.537" r="57.839"/>
	<circle style="fill:#E30613;" cx="65" cy="59.537" r="53.498"/>
	<g>
		<path style="fill:#FFFFFF;" d="M38.145,58.708c-1.138,0-2.27-0.148-3.364-0.439c-2.115-0.56-3.968-1.728-5.505-3.469
			c-1.492-1.691-2.525-3.898-3.071-6.558c-0.347-1.689-0.422-3.427-0.223-5.167c0.221-1.939,0.86-3.633,1.9-5.032
			c0.78-1.052,1.641-1.929,2.56-2.604c0.892-0.659,1.826-1.178,2.775-1.541c0.852-0.325,1.807-0.597,2.839-0.808
			c1.403-0.287,2.673-0.433,3.774-0.433c0.226,0,0.448,0.006,0.659,0.019c1.083,0.063,2.292,0.195,3.592,0.39l1.938,0.291
			l0.343,1.67l6.923-0.526l0.834,10.955c0.056,0.744,0.191,1.362,0.38,1.742c0.109,0.22,0.185,0.298,0.204,0.314
			c0.054,0.026,0.132,0.04,0.232,0.042c0.357-0.025,0.447-0.073,0.488-0.102c0.015-0.018,0.076-0.102,0.147-0.322
			c0.073-0.229,0.186-0.767,0.109-1.766l-0.835-10.983l10.354-0.789l0.105,1.375h13.862v0.257c1.043-0.439,2.221-0.661,3.5-0.661
			c0.327,0,0.667,0.015,1.011,0.043c1.099,0.09,2.137,0.299,3.085,0.62c0.505,0.172,0.958,0.349,1.369,0.535
			c0.879-0.868,1.986-1.502,3.3-1.888c0.818-0.239,1.706-0.36,2.643-0.36c0.682,0,1.399,0.064,2.132,0.191
			c1.15,0.198,2.228,0.508,3.203,0.921c0.951,0.405,1.722,0.81,2.356,1.24c0.643,0.434,1.066,0.76,1.37,1.056l1.06,1.03l-1.606,9.31
			c0.32,1.054,0.375,2.21,0.162,3.444c-0.286,1.654-0.977,3.057-2.052,4.172c-1.054,1.09-2.381,1.837-3.945,2.22
			c-0.784,0.192-1.612,0.289-2.46,0.289c-0.691,0-1.414-0.064-2.147-0.191c-0.433-0.074-0.949-0.191-1.532-0.348
			c-0.602-0.16-1.328-0.426-2.214-0.81c-0.673,0.55-1.443,0.986-2.296,1.3c-1.042,0.38-2.176,0.573-3.374,0.573
			c-0.323,0-0.654-0.014-0.982-0.041c-0.415-0.035-0.906-0.103-1.461-0.202c-0.627-0.113-1.378-0.327-2.297-0.653
			c-0.48-0.17-0.977-0.377-1.479-0.616H61.82v-0.921c-0.754,0.505-1.56,0.913-2.407,1.219c-1.18,0.423-2.385,0.683-3.583,0.773
			c-0.336,0.026-0.68,0.04-1.019,0.04c-1.334,0-2.67-0.203-3.973-0.605c-0.997-0.307-1.93-0.772-2.78-1.387
			c-0.21,0.138-0.44,0.283-0.698,0.439c-0.249,0.15-0.598,0.344-1.102,0.611l-0.019,0.01c-0.854,0.427-1.68,0.781-2.528,1.084
			c-0.851,0.303-1.772,0.558-2.74,0.758C40.023,58.609,39.072,58.708,38.145,58.708z"/>
		<path style="fill:#FFFFFF;" d="M30.645,61.381l10.893-0.821l1.719,4.501l1.222-4.723l7.421-0.558l1.928,4.582l1.108-4.811
			l10.834-0.819l-0.867,3.374h4.751v5.808h1.563v-5.808h9.624c0.758-0.623,1.596-1.147,2.501-1.562
			c1.354-0.623,2.838-0.939,4.41-0.939c0.792,0,1.614,0.081,2.443,0.241c1.844,0.353,3.469,1.046,4.829,2.059
			c1.368,1.023,2.435,2.277,3.174,3.727c0.699,1.373,1.141,2.907,1.312,4.558c0.165,1.573,0.089,3.2-0.224,4.835
			c-0.428,2.223-1.241,4.233-2.418,5.974c-1.263,1.867-2.906,3.259-4.883,4.138c-1.328,0.588-2.773,0.886-4.297,0.886
			c-0.792,0-1.621-0.082-2.464-0.243c-1.975-0.38-3.68-1.135-5.075-2.248h-8.932V77.36h-1.563v6.173H59.394l-0.408,1.586
			l-6.747,0.507l-2.602-5.964l-1.735,6.292l-6.765,0.509L30.645,61.381z M87.843,70.433c-0.179,0-0.322,0.035-0.523,0.213
			c-0.418,0.374-0.719,1.018-0.89,1.912c-0.171,0.898-0.129,1.61,0.126,2.118c0.129,0.259,0.266,0.396,0.697,0.478
			c0.119,0.023,0.226,0.034,0.32,0.034c0.12,0,0.216-0.018,0.294-0.054c0.202-0.094,0.383-0.267,0.555-0.53
			c0.258-0.398,0.452-0.923,0.575-1.558c0.093-0.49,0.123-0.939,0.09-1.331c-0.024-0.291-0.085-0.536-0.183-0.733
			c-0.07-0.141-0.157-0.249-0.273-0.338c-0.099-0.077-0.26-0.137-0.478-0.179C88.04,70.445,87.936,70.433,87.843,70.433z"/>
	</g>
	<g>
		<linearGradient id="SVGID_1_" gradientUnits="userSpaceOnUse" x1="86.7653" y1="38.3384" x2="101.3909" y2="52.964">
			<stop  offset="0.3682" style="stop-color:#004E98"/>
			<stop  offset="0.839" style="stop-color:#201B61"/>
			<a:midPointStop  offset="0.3682" style="stop-color:#004E98"/>
			<a:midPointStop  offset="0.5" style="stop-color:#004E98"/>
			<a:midPointStop  offset="0.839" style="stop-color:#201B61"/>
		</linearGradient>
		<path style="fill:url(#SVGID_1_);" d="M94.289,56.524c-0.641,0-1.314-0.06-2.001-0.179c-0.396-0.068-0.882-0.177-1.455-0.331
			c-0.597-0.159-1.333-0.433-2.248-0.836c-0.913-0.401-1.85-0.925-2.788-1.557l-1.046-0.705l1.561-9.028l1.7,1.546
			c-0.344-0.491-0.631-1.018-0.86-1.58c-0.46-1.126-0.576-2.377-0.344-3.716c0.221-1.283,0.742-2.417,1.552-3.368
			c0.825-0.973,1.94-1.672,3.309-2.075c1.287-0.377,2.765-0.427,4.385-0.146c1.09,0.187,2.103,0.479,3.014,0.865
			c0.894,0.38,1.618,0.76,2.21,1.16c0.599,0.404,0.985,0.7,1.251,0.959l0.736,0.715l-1.538,8.916l-0.141-0.146
			c0.43,1.047,0.536,2.237,0.312,3.538c-0.257,1.482-0.871,2.734-1.824,3.721c-0.939,0.972-2.128,1.638-3.531,1.982
			C95.83,56.435,95.073,56.524,94.289,56.524z M93.219,52.55c0.896,0.127,1.691,0.101,2.398-0.072
			c0.69-0.169,1.232-0.466,1.658-0.906c0.407-0.421,0.664-0.971,0.787-1.678c0.101-0.589,0.068-1.076-0.099-1.447
			c-0.222-0.495-0.588-0.976-1.086-1.433c-0.635-0.583-1.531-1.288-2.662-2.098c-0.846-0.614-1.403-1.105-1.761-1.552
			c-0.588-0.729-0.829-1.625-0.675-2.517c0.162-0.925,0.692-1.701,1.493-2.193c0.289-0.178,0.61-0.307,0.96-0.387
			c-0.557-0.014-1.038,0.042-1.464,0.166c-0.635,0.187-1.107,0.469-1.438,0.86c-0.358,0.419-0.58,0.912-0.683,1.508
			c-0.106,0.619-0.068,1.137,0.114,1.587c0.221,0.545,0.534,1.006,0.96,1.416c0.531,0.509,1.185,1.02,1.945,1.519
			c0.892,0.557,1.584,1.093,2.086,1.612c0.816,0.846,1.162,1.908,0.974,2.992c-0.129,0.733-0.536,1.385-1.211,1.942
			C94.93,52.348,94.168,52.568,93.219,52.55z"/>
		<linearGradient id="SVGID_2_" gradientUnits="userSpaceOnUse" x1="94.0305" y1="54.5769" x2="94.0305" y2="36.3167">
			<stop  offset="0" style="stop-color:#FF831B"/>
			<stop  offset="0.7625" style="stop-color:#FFD900"/>
			<a:midPointStop  offset="0" style="stop-color:#FF831B"/>
			<a:midPointStop  offset="0.5" style="stop-color:#FF831B"/>
			<a:midPointStop  offset="0.7625" style="stop-color:#FFD900"/>
		</linearGradient>
		<path style="fill:url(#SVGID_2_);" d="M99.98,50.227c-0.189,1.094-0.624,1.993-1.306,2.699c-0.682,0.705-1.546,1.186-2.593,1.443
			c-1.047,0.257-2.2,0.276-3.459,0.059c-0.352-0.061-0.779-0.158-1.282-0.293c-0.503-0.135-1.16-0.38-1.97-0.737
			c-0.81-0.357-1.638-0.82-2.482-1.391l0.741-4.291c0.764,0.695,1.53,1.295,2.298,1.801c0.768,0.505,1.626,0.84,2.575,1.004
			c0.875,0.151,1.467,0.1,1.777-0.154c0.309-0.254,0.486-0.512,0.531-0.772c0.081-0.471-0.071-0.907-0.456-1.307
			c-0.386-0.4-0.97-0.846-1.753-1.336c-0.863-0.565-1.605-1.146-2.226-1.743c-0.621-0.597-1.093-1.291-1.415-2.084
			s-0.399-1.676-0.23-2.652c0.163-0.942,0.535-1.755,1.116-2.439s1.373-1.173,2.376-1.468c1.003-0.295,2.171-0.327,3.504-0.096
			c0.949,0.164,1.81,0.41,2.582,0.739c0.773,0.328,1.401,0.656,1.883,0.982s0.811,0.573,0.984,0.742l-0.709,4.102
			c-0.607-0.633-1.302-1.226-2.087-1.777s-1.664-0.911-2.637-1.08c-0.638-0.11-1.122-0.064-1.452,0.139
			c-0.33,0.203-0.527,0.49-0.591,0.86c-0.06,0.345,0.032,0.668,0.275,0.97c0.243,0.302,0.701,0.697,1.374,1.186
			c1.2,0.857,2.148,1.606,2.846,2.246c0.698,0.64,1.213,1.329,1.544,2.067C100.07,48.381,100.15,49.242,99.98,50.227z"/>
		<linearGradient id="SVGID_3_" gradientUnits="userSpaceOnUse" x1="75.4783" y1="39.2929" x2="89.7285" y2="53.5431">
			<stop  offset="0.3682" style="stop-color:#004E98"/>
			<stop  offset="0.839" style="stop-color:#201B61"/>
			<a:midPointStop  offset="0.3682" style="stop-color:#004E98"/>
			<a:midPointStop  offset="0.5" style="stop-color:#004E98"/>
			<a:midPointStop  offset="0.839" style="stop-color:#201B61"/>
		</linearGradient>
		<path style="fill:url(#SVGID_3_);" d="M82.727,57.047c-0.297,0-0.601-0.012-0.911-0.038c-0.38-0.032-0.839-0.095-1.381-0.192
			c-0.58-0.105-1.286-0.306-2.16-0.617c-0.879-0.311-1.789-0.74-2.706-1.275l-1.061-0.62l0.759-9.097l1.276,1.026
			c-0.198-0.298-0.375-0.609-0.531-0.937c-0.506-1.047-0.707-2.242-0.597-3.549c0.103-1.255,0.491-2.395,1.156-3.385
			c0.69-1.033,1.675-1.822,2.921-2.346c1.179-0.496,2.543-0.686,4.109-0.555c1.029,0.085,1.999,0.279,2.881,0.577
			c0.863,0.294,1.567,0.602,2.151,0.943c0.593,0.346,0.977,0.604,1.246,0.835l0.753,0.648l-0.742,8.928
			c0.38,0.914,0.523,1.955,0.43,3.104c-0.122,1.45-0.586,2.713-1.382,3.753c-0.797,1.04-1.85,1.806-3.134,2.277
			C84.859,56.872,83.825,57.047,82.727,57.047z M81.742,39.394c-0.27,0.048-0.515,0.12-0.738,0.213
			c-0.542,0.228-0.934,0.531-1.198,0.925c-0.295,0.438-0.462,0.941-0.51,1.537c-0.051,0.617,0.023,1.12,0.224,1.542
			c0.24,0.496,0.551,0.904,0.96,1.251c0.513,0.439,1.139,0.867,1.86,1.273c0.873,0.468,1.561,0.933,2.067,1.401
			c0.822,0.757,1.225,1.756,1.139,2.814c-0.059,0.714-0.384,1.383-0.968,1.988c-0.373,0.389-0.858,0.657-1.447,0.801
			c0.483-0.031,0.928-0.122,1.331-0.269c0.586-0.215,1.038-0.538,1.382-0.988c0.34-0.444,0.534-1.002,0.593-1.707
			c0.048-0.589-0.021-1.064-0.203-1.412c-0.234-0.445-0.593-0.867-1.071-1.253c-0.618-0.503-1.485-1.1-2.573-1.776
			c-0.837-0.53-1.394-0.963-1.765-1.375c-0.599-0.66-0.892-1.508-0.818-2.382c0.074-0.892,0.502-1.691,1.204-2.247
			C81.377,39.6,81.554,39.488,81.742,39.394z"/>
		<linearGradient id="SVGID_4_" gradientUnits="userSpaceOnUse" x1="79.4922" y1="64.5885" x2="95.9364" y2="81.0327">
			<stop  offset="0.3682" style="stop-color:#004E98"/>
			<stop  offset="0.839" style="stop-color:#201B61"/>
			<a:midPointStop  offset="0.3682" style="stop-color:#004E98"/>
			<a:midPointStop  offset="0.5" style="stop-color:#004E98"/>
			<a:midPointStop  offset="0.839" style="stop-color:#201B61"/>
		</linearGradient>
		<path style="fill:url(#SVGID_4_);" d="M87.685,85.163c-0.74,0-1.516-0.077-2.303-0.227c-2.324-0.447-4.224-1.438-5.65-2.946
			c-1.392-1.474-2.312-3.252-2.733-5.287c-0.397-1.931-0.401-3.935-0.013-5.956c0.39-2.033,1.133-3.895,2.212-5.533
			c1.139-1.734,2.653-3.044,4.499-3.891c1.877-0.863,4.018-1.081,6.333-0.635c1.717,0.329,3.223,0.97,4.478,1.905
			c1.259,0.941,2.242,2.094,2.921,3.428c0.652,1.281,1.063,2.714,1.223,4.257c0.156,1.492,0.084,3.035-0.213,4.585
			c-0.405,2.106-1.173,4.009-2.286,5.655c-1.171,1.731-2.691,3.021-4.52,3.834C90.418,84.89,89.091,85.163,87.685,85.163z
			 M87.744,64.357c-0.888,0-1.681,0.165-2.423,0.506c-1.187,0.546-2.126,1.361-2.87,2.492c-0.795,1.209-1.346,2.597-1.639,4.127
			c-0.293,1.518-0.291,3.009,0.002,4.436c0.276,1.332,0.848,2.445,1.748,3.397c0.865,0.916,2.027,1.502,3.552,1.796
			c1.502,0.288,2.801,0.184,3.938-0.319c1.168-0.519,2.109-1.322,2.875-2.455c0.814-1.206,1.383-2.621,1.685-4.206
			c0.226-1.175,0.281-2.335,0.165-3.45c-0.11-1.068-0.386-2.04-0.82-2.892c-0.413-0.808-0.995-1.486-1.78-2.073
			c-0.778-0.579-1.748-0.984-2.883-1.202C88.756,64.411,88.235,64.357,87.744,64.357z M87.575,79.945
			c-0.392,0-0.797-0.039-1.217-0.12c-1.839-0.352-3.242-1.397-4.054-3.022c-0.732-1.464-0.915-3.194-0.544-5.138
			c0.373-1.943,1.179-3.48,2.398-4.569c1.337-1.191,3.005-1.662,4.893-1.299c0.957,0.184,1.793,0.549,2.487,1.086
			c0.683,0.525,1.228,1.19,1.62,1.975c0.371,0.741,0.595,1.571,0.669,2.468c0.067,0.824,0.013,1.706-0.162,2.619
			c-0.242,1.246-0.664,2.339-1.261,3.255c-0.662,1.018-1.516,1.774-2.537,2.249C89.155,79.778,88.385,79.945,87.575,79.945z
			 M87.843,69.574c-0.422,0-0.759,0.133-1.093,0.43c-0.565,0.505-0.957,1.31-1.164,2.394c-0.207,1.086-0.141,1.982,0.202,2.665
			c0.266,0.533,0.656,0.814,1.305,0.938c0.439,0.085,0.82,0.064,1.139-0.086c0.35-0.163,0.648-0.437,0.911-0.839
			c0.319-0.493,0.555-1.12,0.7-1.865c0.106-0.565,0.143-1.093,0.103-1.567c-0.032-0.399-0.124-0.75-0.27-1.044
			c-0.129-0.259-0.299-0.466-0.515-0.634c-0.211-0.164-0.487-0.276-0.842-0.344C88.153,69.591,87.995,69.574,87.843,69.574z"/>
		<linearGradient id="SVGID_5_" gradientUnits="userSpaceOnUse" x1="82.5799" y1="55.1" x2="82.5799" y2="37.3696">
			<stop  offset="0" style="stop-color:#FF831B"/>
			<stop  offset="0.7625" style="stop-color:#FFD900"/>
			<a:midPointStop  offset="0" style="stop-color:#FF831B"/>
			<a:midPointStop  offset="0.5" style="stop-color:#FF831B"/>
			<a:midPointStop  offset="0.7625" style="stop-color:#FFD900"/>
		</linearGradient>
		<path style="fill:url(#SVGID_5_);" d="M88.379,50.337c-0.089,1.076-0.419,1.986-0.988,2.73c-0.569,0.744-1.322,1.288-2.259,1.631
			c-0.937,0.343-1.989,0.466-3.156,0.369c-0.326-0.027-0.724-0.083-1.194-0.168c-0.47-0.085-1.089-0.263-1.856-0.535
			c-0.767-0.272-1.559-0.646-2.374-1.122l0.35-4.221c0.751,0.604,1.497,1.116,2.237,1.536c0.74,0.42,1.55,0.666,2.429,0.739
			c0.811,0.067,1.348-0.036,1.611-0.31c0.263-0.274,0.405-0.539,0.427-0.796c0.038-0.463-0.134-0.871-0.517-1.224
			c-0.383-0.353-0.951-0.731-1.703-1.135c-0.831-0.469-1.553-0.964-2.167-1.486c-0.613-0.522-1.097-1.151-1.452-1.889
			c-0.355-0.738-0.492-1.587-0.413-2.547c0.077-0.927,0.355-1.748,0.834-2.462c0.479-0.714,1.165-1.26,2.059-1.635
			c0.894-0.376,1.958-0.513,3.194-0.41c0.879,0.073,1.685,0.234,2.416,0.482c0.731,0.248,1.33,0.508,1.796,0.78
			c0.466,0.272,0.784,0.482,0.955,0.629l-0.335,4.035c-0.602-0.558-1.283-1.069-2.043-1.532c-0.759-0.463-1.59-0.732-2.492-0.807
			c-0.591-0.049-1.03,0.04-1.316,0.266s-0.444,0.521-0.474,0.886c-0.028,0.339,0.08,0.644,0.325,0.914
			c0.245,0.27,0.693,0.612,1.346,1.024c1.161,0.721,2.085,1.36,2.772,1.917c0.687,0.557,1.209,1.177,1.569,1.861
			C88.32,48.542,88.459,49.369,88.379,50.337z"/>
		<linearGradient id="SVGID_6_" gradientUnits="userSpaceOnUse" x1="87.7151" y1="83.2157" x2="87.7151" y2="62.4105">
			<stop  offset="0" style="stop-color:#FF831B"/>
			<stop  offset="0.7625" style="stop-color:#FFD900"/>
			<a:midPointStop  offset="0" style="stop-color:#FF831B"/>
			<a:midPointStop  offset="0.5" style="stop-color:#FF831B"/>
			<a:midPointStop  offset="0.7625" style="stop-color:#FFD900"/>
		</linearGradient>
		<path style="fill:url(#SVGID_6_);" d="M96.526,74.496c-0.356,1.856-1.018,3.5-1.985,4.931s-2.201,2.479-3.699,3.144
			c-1.498,0.665-3.196,0.816-5.094,0.452c-1.92-0.368-3.453-1.158-4.599-2.37c-1.146-1.212-1.893-2.659-2.24-4.343
			c-0.347-1.683-0.35-3.415-0.009-5.194c0.343-1.789,0.985-3.399,1.925-4.831s2.169-2.495,3.685-3.192
			c1.516-0.696,3.234-0.86,5.154-0.492c1.434,0.275,2.661,0.793,3.681,1.554c1.02,0.761,1.803,1.677,2.348,2.749
			c0.546,1.072,0.887,2.263,1.023,3.573C96.851,71.788,96.788,73.128,96.526,74.496z M91.752,73.58
			c0.143-0.746,0.188-1.444,0.134-2.094c-0.054-0.65-0.21-1.236-0.471-1.757c-0.26-0.521-0.616-0.956-1.068-1.306
			c-0.452-0.349-1.007-0.587-1.664-0.713c-1.255-0.241-2.331,0.039-3.228,0.839c-0.897,0.8-1.491,1.961-1.783,3.482
			c-0.292,1.521-0.167,2.822,0.373,3.903c0.54,1.081,1.434,1.74,2.682,1.98c0.859,0.165,1.633,0.087,2.322-0.232
			s1.264-0.834,1.725-1.544C91.235,75.428,91.561,74.575,91.752,73.58z"/>
		<linearGradient id="SVGID_7_" gradientUnits="userSpaceOnUse" x1="61.6588" y1="36.8468" x2="79.4222" y2="54.6102">
			<stop  offset="0.3682" style="stop-color:#004E98"/>
			<stop  offset="0.839" style="stop-color:#201B61"/>
			<a:midPointStop  offset="0.3682" style="stop-color:#004E98"/>
			<a:midPointStop  offset="0.5" style="stop-color:#004E98"/>
			<a:midPointStop  offset="0.839" style="stop-color:#201B61"/>
		</linearGradient>
		<path style="fill:url(#SVGID_7_);" d="M78.498,55.534H62.68V35.826h15.624v7.067h-0.319v5.564h0.513V55.534z M66.575,51.64h0.875
			V39.72h-0.875V51.64z"/>
		<linearGradient id="SVGID_8_" gradientUnits="userSpaceOnUse" x1="70.5897" y1="53.5874" x2="70.5897" y2="37.7732">
			<stop  offset="0" style="stop-color:#FF831B"/>
			<stop  offset="0.7625" style="stop-color:#FFD900"/>
			<a:midPointStop  offset="0" style="stop-color:#FF831B"/>
			<a:midPointStop  offset="0.5" style="stop-color:#FF831B"/>
			<a:midPointStop  offset="0.7625" style="stop-color:#FFD900"/>
		</linearGradient>
		<path style="fill:url(#SVGID_8_);" d="M76.551,53.587H64.628V37.773h11.729v3.172h-6.96v2.898h6.641v3.183h-6.641v3.377h7.154
			V53.587z"/>
		<linearGradient id="SVGID_9_" gradientUnits="userSpaceOnUse" x1="45.8377" y1="34.103" x2="64.0531" y2="52.3184">
			<stop  offset="0.3682" style="stop-color:#004E98"/>
			<stop  offset="0.839" style="stop-color:#201B61"/>
			<a:midPointStop  offset="0.3682" style="stop-color:#004E98"/>
			<a:midPointStop  offset="0.5" style="stop-color:#004E98"/>
			<a:midPointStop  offset="0.839" style="stop-color:#201B61"/>
		</linearGradient>
		<path style="fill:url(#SVGID_9_);" d="M54.811,56.645c-1.249,0-2.501-0.191-3.72-0.567c-1.658-0.511-3.1-1.488-4.281-2.906
			c-1.202-1.441-1.9-3.346-2.075-5.659l-0.871-11.438l8.628-0.655l0.768,10.098c0.065,0.863,0.226,1.576,0.468,2.06
			c0.171,0.347,0.358,0.576,0.555,0.683c0.186,0.101,0.407,0.15,0.675,0.15c0.517-0.032,0.77-0.119,0.985-0.279
			c0.179-0.132,0.327-0.381,0.443-0.741c0.164-0.511,0.215-1.235,0.148-2.097l-0.77-10.124l8.639-0.658l0.871,11.44
			c0.133,1.768-0.07,3.344-0.603,4.689c-0.538,1.366-1.333,2.505-2.362,3.382c-0.96,0.817-2.033,1.441-3.189,1.858
			c-1.103,0.396-2.231,0.64-3.356,0.725C55.448,56.633,55.129,56.645,54.811,56.645z M48.045,39.664l0.574,7.555
			c0.112,1.49,0.51,2.654,1.183,3.46c0.698,0.839,1.497,1.387,2.436,1.677c1.063,0.327,2.145,0.454,3.233,0.368
			c0.778-0.059,1.561-0.229,2.333-0.506c0.723-0.261,1.373-0.64,1.983-1.16c0.542-0.462,0.957-1.066,1.263-1.846
			c0.316-0.796,0.43-1.793,0.342-2.967l-0.574-7.553l-0.873,0.067l0.474,6.239c0.108,1.395,0.002,2.567-0.323,3.582
			c-0.369,1.152-0.985,2.054-1.829,2.68c-0.808,0.6-1.761,0.946-2.828,1.026c-1.095,0.089-2.113-0.119-3.005-0.598
			c-0.922-0.499-1.66-1.3-2.196-2.383c-0.466-0.942-0.755-2.117-0.86-3.494l-0.472-6.214L48.045,39.664z"/>
		<linearGradient id="SVGID_10_" gradientUnits="userSpaceOnUse" x1="54.6619" y1="54.6971" x2="54.6619" y2="36.6038">
			<stop  offset="0" style="stop-color:#FF831B"/>
			<stop  offset="0.7625" style="stop-color:#FFD900"/>
			<a:midPointStop  offset="0" style="stop-color:#FF831B"/>
			<a:midPointStop  offset="0.5" style="stop-color:#FF831B"/>
			<a:midPointStop  offset="0.7625" style="stop-color:#FFD900"/>
		</linearGradient>
		<path style="fill:url(#SVGID_10_);" d="M63.333,46.101c0.112,1.473-0.045,2.748-0.47,3.825c-0.425,1.077-1.03,1.949-1.815,2.617
			c-0.785,0.667-1.647,1.17-2.586,1.508c-0.939,0.338-1.887,0.543-2.843,0.616c-1.335,0.101-2.653-0.048-3.953-0.449
			c-1.301-0.401-2.421-1.165-3.361-2.292c-0.94-1.127-1.483-2.647-1.628-4.559l-0.722-9.497l4.744-0.361l0.62,8.157
			c0.086,1.134,0.307,2.06,0.663,2.778c0.356,0.718,0.814,1.228,1.375,1.531c0.561,0.303,1.205,0.427,1.933,0.371
			c0.698-0.053,1.303-0.27,1.816-0.65c0.513-0.38,0.891-0.95,1.135-1.709c0.244-0.759,0.322-1.706,0.236-2.84l-0.622-8.181
			l4.756-0.361L63.333,46.101z"/>
		<linearGradient id="SVGID_11_" gradientUnits="userSpaceOnUse" x1="30.1712" y1="36.7519" x2="48.2064" y2="54.7871">
			<stop  offset="0.3682" style="stop-color:#004E98"/>
			<stop  offset="0.839" style="stop-color:#201B61"/>
			<a:midPointStop  offset="0.3682" style="stop-color:#004E98"/>
			<a:midPointStop  offset="0.5" style="stop-color:#004E98"/>
			<a:midPointStop  offset="0.839" style="stop-color:#201B61"/>
		</linearGradient>
		<path style="fill:url(#SVGID_11_);" d="M38.145,57.848c-1.063,0-2.12-0.138-3.143-0.41c-1.949-0.516-3.659-1.595-5.081-3.207
			c-1.392-1.578-2.358-3.652-2.873-6.162c-0.329-1.601-0.399-3.249-0.211-4.897c0.203-1.788,0.787-3.34,1.736-4.617
			c0.726-0.98,1.527-1.798,2.379-2.425c0.831-0.614,1.698-1.096,2.573-1.431c0.802-0.306,1.711-0.566,2.704-0.769
			c1.63-0.334,3.052-0.466,4.21-0.398c1.057,0.062,2.238,0.19,3.514,0.382l1.344,0.202l1.426,6.941l0.323-0.067l2.548,12.409
			l-1.04,0.735c-0.35,0.247-0.65,0.453-0.903,0.618c-0.247,0.164-0.498,0.32-0.738,0.466c-0.242,0.145-0.597,0.341-1.059,0.587
			c-0.823,0.412-1.628,0.756-2.432,1.043c-0.814,0.29-1.694,0.533-2.624,0.725C39.906,57.756,39.014,57.848,38.145,57.848z
			 M39.811,37.408c-0.768,0-1.71,0.113-2.799,0.337c-0.785,0.162-1.491,0.36-2.096,0.592c-0.548,0.209-1.103,0.521-1.654,0.928
			c-0.54,0.397-1.065,0.938-1.561,1.61c-0.544,0.732-0.869,1.627-0.996,2.738c-0.141,1.239-0.087,2.474,0.158,3.672
			c0.377,1.837,1.044,3.307,1.98,4.37c0.917,1.037,1.949,1.698,3.159,2.019c1.284,0.34,2.626,0.369,4.013,0.085
			c0.751-0.155,1.459-0.35,2.099-0.578c0.656-0.235,1.316-0.517,1.963-0.841c0.34-0.179,0.628-0.337,0.823-0.455
			c0.118-0.071,0.24-0.146,0.363-0.224l-1.246-6.072l-2.824,0.58l0.013,0.062l2.259-0.463l1.152,5.631l-1.329,0.671
			c-0.831,0.418-1.66,0.715-2.468,0.88c-1.47,0.303-2.856,0.222-4.09-0.236c-1.242-0.463-2.269-1.222-3.054-2.257
			c-0.734-0.966-1.236-2.095-1.495-3.353c-0.217-1.058-0.226-2.195-0.029-3.376c0.222-1.319,0.837-2.54,1.826-3.629
			c1.017-1.123,2.476-1.885,4.332-2.264c1.386-0.285,2.639-0.35,3.739-0.183l-0.013-0.067c-0.648-0.076-1.259-0.132-1.824-0.165
			C40.083,37.412,39.95,37.408,39.811,37.408z M40.781,41.454c-0.498,0-1.067,0.066-1.689,0.194
			c-1.031,0.211-1.782,0.57-2.233,1.066c-0.487,0.536-0.77,1.079-0.867,1.659c-0.12,0.706-0.118,1.361,0.002,1.946
			c0.143,0.692,0.397,1.275,0.783,1.781c0.272,0.359,0.603,0.633,1.006,0.832l-0.002-0.011l-1.189-5.784l6.293-1.292
			c-0.424-0.133-0.858-0.241-1.295-0.322C41.34,41.475,41.07,41.454,40.781,41.454z"/>
		<linearGradient id="SVGID_12_" gradientUnits="userSpaceOnUse" x1="38.0551" y1="55.9007" x2="38.0551" y2="35.46">
			<stop  offset="0" style="stop-color:#FF831B"/>
			<stop  offset="0.7625" style="stop-color:#FFD900"/>
			<a:midPointStop  offset="0" style="stop-color:#FF831B"/>
			<a:midPointStop  offset="0.5" style="stop-color:#FF831B"/>
			<a:midPointStop  offset="0.7625" style="stop-color:#FFD900"/>
		</linearGradient>
		<path style="fill:url(#SVGID_12_);" d="M47.431,52.543c-0.328,0.231-0.609,0.424-0.844,0.579
			c-0.235,0.154-0.462,0.298-0.681,0.429c-0.219,0.132-0.539,0.309-0.961,0.53c-0.718,0.36-1.445,0.671-2.179,0.932
			c-0.734,0.262-1.522,0.479-2.362,0.651c-1.689,0.347-3.322,0.31-4.901-0.109c-1.579-0.419-2.953-1.291-4.121-2.615
			c-1.168-1.324-1.977-3.079-2.426-5.265c-0.289-1.408-0.351-2.836-0.185-4.284c0.166-1.448,0.621-2.674,1.366-3.676
			c0.613-0.831,1.27-1.504,1.969-2.019c0.699-0.515,1.404-0.909,2.116-1.18s1.512-0.499,2.4-0.681
			c1.465-0.301,2.699-0.421,3.704-0.362s2.118,0.181,3.34,0.364l0.936,4.557c-0.857-0.355-1.741-0.618-2.651-0.788
			c-0.911-0.17-1.994-0.126-3.251,0.132c-1.449,0.297-2.542,0.852-3.28,1.665c-0.738,0.813-1.187,1.694-1.346,2.644
			c-0.159,0.95-0.155,1.837,0.015,2.661c0.2,0.973,0.58,1.829,1.14,2.568c0.56,0.739,1.288,1.275,2.182,1.608
			s1.901,0.384,3.022,0.154c0.64-0.131,1.301-0.368,1.981-0.711l-0.465-2.265l-2.257,0.463l-0.796-3.877l6.639-1.363L47.431,52.543z
			"/>
		<linearGradient id="SVGID_13_" gradientUnits="userSpaceOnUse" x1="60.351" y1="62.7419" x2="80.5047" y2="82.8957">
			<stop  offset="0.3682" style="stop-color:#004E98"/>
			<stop  offset="0.839" style="stop-color:#201B61"/>
			<a:midPointStop  offset="0.3682" style="stop-color:#004E98"/>
			<a:midPointStop  offset="0.5" style="stop-color:#004E98"/>
			<a:midPointStop  offset="0.839" style="stop-color:#201B61"/>
		</linearGradient>
		<path style="fill:url(#SVGID_13_);" d="M80.727,82.673h-8.653V76.5h-3.282v6.173h-8.664V62.964h8.664v5.808h3.282v-5.808h8.653
			V82.673z M75.969,78.779h0.863v-11.92h-0.863V78.779z M64.023,78.779h0.875v-11.92h-0.875V78.779z"/>
		<linearGradient id="SVGID_14_" gradientUnits="userSpaceOnUse" x1="70.4287" y1="80.726" x2="70.4287" y2="64.9118">
			<stop  offset="0" style="stop-color:#FF831B"/>
			<stop  offset="0.7625" style="stop-color:#FFD900"/>
			<a:midPointStop  offset="0" style="stop-color:#FF831B"/>
			<a:midPointStop  offset="0.5" style="stop-color:#FF831B"/>
			<a:midPointStop  offset="0.7625" style="stop-color:#FFD900"/>
		</linearGradient>
		<path style="fill:url(#SVGID_14_);" d="M78.781,80.726h-4.758v-6.173h-7.177v6.173h-4.769V64.912h4.769v5.808h7.177v-5.808h4.758
			V80.726z"/>
		<linearGradient id="SVGID_15_" gradientUnits="userSpaceOnUse" x1="37.2957" y1="56.7512" x2="61.5794" y2="81.0349">
			<stop  offset="0.3682" style="stop-color:#004E98"/>
			<stop  offset="0.839" style="stop-color:#201B61"/>
			<a:midPointStop  offset="0.3682" style="stop-color:#004E98"/>
			<a:midPointStop  offset="0.5" style="stop-color:#004E98"/>
			<a:midPointStop  offset="0.839" style="stop-color:#201B61"/>
		</linearGradient>
		<path style="fill:url(#SVGID_15_);" d="M41.69,85.56l-9.792-23.411l9.065-0.684l2.451,6.419l1.742-6.736l6.19-0.466l2.721,6.467
			l1.563-6.79l9.006-0.681l-6.331,24.629l-5.524,0.416l-3.33-7.63l-2.219,8.05L41.69,85.56z M37.573,65.627L44.2,81.466l0.006-0.001
			l4.414-16.012l6.616,15.156l4.279-16.637l-0.73,0.055l-3.628,15.749l-6.312-14.999l-0.614,0.046l-4.104,15.854l-5.764-15.11
			L37.573,65.627z"/>
		<linearGradient id="SVGID_16_" gradientUnits="userSpaceOnUse" x1="48.4063" y1="83.5128" x2="48.4063" y2="61.8258">
			<stop  offset="0" style="stop-color:#FF831B"/>
			<stop  offset="0.7625" style="stop-color:#FFD900"/>
			<a:midPointStop  offset="0" style="stop-color:#FF831B"/>
			<a:midPointStop  offset="0.5" style="stop-color:#FF831B"/>
			<a:midPointStop  offset="0.7625" style="stop-color:#FFD900"/>
		</linearGradient>
		<path style="fill:url(#SVGID_16_);" d="M62.077,61.826L56.768,82.47l-2.753,0.208l-4.979-11.405l-3.315,12.03l-2.776,0.209
			l-8.208-19.625l4.927-0.372L43.77,74.28l2.924-11.294l3.402-0.257l4.517,10.733l2.594-11.269L62.077,61.826z"/>
	</g>
	<ellipse style="fill:#AF0404;adobe-blending-mode:multiply;" cx="65.315" cy="92.961" rx="30.059" ry="1.158"/>
</g>
</svg>
